# xmcd
#
# Track frame offsets: 
#        150
#        17827
#        36754
#        52486
#        67664
#        83595
#        99003
#        116190
#        136020
#        153830
#
# Disc length: 2287 seconds
#
# Revision: 0
# Processed by: cddbd v1.5.2PL0 Copyright (c) Steve Scherf et al.
# Submitted via: ExactAudioCopy v1.2
#
DISCID=7308ed0a
DTITLE=Willie May - Blues Like That
DYEAR=2018
DGENRE=Blues
TTITLE0=Don't You Cry
TTITLE1=She Loves the Devil
TTITLE2=Ferris Wheel
TTITLE3=Two Cats
TTITLE4=Bottoms up Baby
TTITLE5=You Should Stop Talkin'
TTITLE6=Livin' Like a King
TTITLE7=You Know I'm Lyin'
TTITLE8=The Party's Over
TTITLE9=Evil Wicked Big and Mean
EXTD=
EXTT0=
EXTT1=
EXTT2=
EXTT3=
EXTT4=
EXTT5=
EXTT6=
EXTT7=
EXTT8=
EXTT9=
PLAYORDER=
